<svg xmlns="http://www.w3.org/2000/svg" version="1.1" xmlns:xlink="http://www.w3.org/1999/xlink" xmlns:svgjs="http://svgjs.dev/svgjs" width="1500" height="1500" viewBox="0 0 1500 1500"><rect width="1500" height="1500" fill="#000000"></rect><g transform="matrix(0.6666666666666666,0,0,0.6666666666666666,250.10666666666668,548.8484)"><svg viewBox="0 0 375 151" data-background-color="#ffffff" preserveAspectRatio="xMidYMid meet" height="604" width="1500" xmlns="http://www.w3.org/2000/svg" xmlns:xlink="http://www.w3.org/1999/xlink"><g id="tight-bounds" transform="matrix(1,0,0,1,-0.03976000000000113,-0.06814999999998861)"><svg viewBox="0 0 375.07953 151.13612999999995" height="151.13612999999995" width="375.07953"><g><svg></svg></g><g><svg viewBox="0 0 375.07953 151.13612999999995" height="151.13612999999995" width="375.07953"><g transform="matrix(1,0,0,1,-10.22024,-50.50370000000001)"><path d="M10.22 196.696v-146.192h375.08v146.192h-66.883l0-4.692h62.191v-136.808h-365.696v136.808l62.191 0 0 4.692z" fill="#ffffff" fill-rule="nonzero" stroke="none" stroke-width="1" stroke-linecap="butt" stroke-linejoin="miter" stroke-miterlimit="10" stroke-dasharray="" stroke-dashoffset="0" font-family="none" font-weight="none" font-size="none" text-anchor="none" style="mix-blend-mode: normal" data-fill-palette-color="tertiary"></path><g><path d="M99.513 198.046h-6.34l-1.953 0.041c-0.055-0.164-0.055-0.328 0-0.492v0l1.134-0.15c0.036-0.465 0.055-1.002 0.054-1.612v0-8.062l-1.106-0.136c-0.036-0.137-0.036-0.305 0-0.506v0c0.501 0.036 1.125 0.055 1.871 0.055v0c0.665 0 1.293-0.014 1.886-0.041v0c0.055 0.164 0.055 0.328 0 0.492v0l-1.134 0.164c-0.036 0.346-0.055 0.879-0.055 1.598v0 7.953h4.509l0.642-2.474c0.137-0.036 0.305-0.036 0.506 0v0zM106.167 194.193v0h-4.29c-0.082 2.323 0.615 3.484 2.091 3.484v0c0.629 0 1.271-0.278 1.926-0.833v0c0.137 0.082 0.241 0.223 0.314 0.424v0c-0.629 0.701-1.426 1.052-2.391 1.052v0c-2.223 0-3.334-1.307-3.334-3.922v0c0-1.239 0.328-2.203 0.984-2.891 0.656-0.687 1.421-1.03 2.296-1.03v0c0.956 0 1.644 0.332 2.063 0.997 0.419 0.665 0.629 1.53 0.628 2.596v0c-0.091 0.073-0.187 0.114-0.287 0.123zM103.735 191.023v0c-0.474 0-0.876 0.246-1.208 0.738-0.333 0.492-0.537 1.12-0.609 1.886v0h1.694c0.674 0 1.157-0.041 1.449-0.123v0c0-0.747-0.114-1.351-0.342-1.812-0.228-0.459-0.556-0.689-0.984-0.689zM114.188 186.897v0c1.357 0 2.036 0.537 2.036 1.612v0c-0.191 0.2-0.647 0.296-1.367 0.287v0c-0.091-0.956-0.323-1.435-0.697-1.434v0c-0.346 0-0.589 0.275-0.729 0.825-0.142 0.552-0.213 1.557-0.213 3.014v0h1.926c0.055 0.173 0.055 0.351 0 0.533v0l-1.926 0.287v5.26l1.653 0.273c0.055 0.182 0.055 0.364 0 0.547v0c-0.574-0.027-1.28-0.041-2.118-0.041v0c-0.492 0-1.12 0.009-1.885 0.027v0c-0.073-0.164-0.073-0.342 0-0.533v0l0.997-0.218c0.036-0.483 0.055-1.038 0.055-1.667v0-3.785l-0.97-0.15c-0.055-0.182-0.055-0.36 0-0.533v0h0.97v-0.929c0-0.547 0.077-1.068 0.232-1.566 0.155-0.496 0.412-0.921 0.771-1.276 0.361-0.355 0.782-0.533 1.265-0.533zM122.604 190.75v0 5.356c0 0.61 0.014 1.038 0.041 1.284v0l1.08 0.137c0.027 0.146 0.027 0.319 0 0.519v0c-0.665 0.027-1.357 0.091-2.077 0.192v0c-0.064-0.064-0.109-0.15-0.137-0.26v0l-0.068-1.216c-0.383 0.492-0.777 0.874-1.183 1.148-0.404 0.273-0.88 0.41-1.427 0.41v0c-0.556 0-1.023-0.141-1.402-0.424-0.377-0.282-0.566-0.765-0.565-1.448v0-3.034c0-1.038-0.014-1.703-0.041-1.994v0l-1.08-0.137c-0.036-0.137-0.036-0.31 0-0.519v0c0.629-0.046 1.412-0.141 2.35-0.287v0c0.082 0.091 0.128 0.182 0.137 0.273v0c-0.046 0.237-0.068 1.908-0.068 5.015v0c0 0.638 0.075 1.09 0.224 1.358 0.151 0.27 0.432 0.404 0.842 0.404v0c0.765 0 1.457-0.455 2.076-1.366v0-2.76c0-1.029-0.014-1.69-0.041-1.981v0l-1.079-0.137c-0.036-0.137-0.036-0.31 0-0.519v0c0.547-0.036 1.307-0.132 2.282-0.287v0c0.082 0.091 0.128 0.182 0.136 0.273zM126.553 189.11v0 1.954h1.927c0.018 0.109 0.027 0.191 0.027 0.246v0c0 0.082-0.009 0.178-0.027 0.287v0l-1.927 0.287v3.758c0 0.674 0.062 1.15 0.186 1.426 0.122 0.279 0.315 0.418 0.579 0.418v0c0.237 0 0.606-0.096 1.107-0.287v0c0.091 0.082 0.155 0.237 0.191 0.465v0c-0.273 0.164-0.48 0.284-0.62 0.36-0.142 0.078-0.321 0.148-0.536 0.208-0.213 0.058-0.438 0.087-0.675 0.088v0c-0.455 0-0.826-0.176-1.112-0.528-0.288-0.35-0.432-0.884-0.432-1.604v0-4.468l-0.956-0.123c-0.018-0.091-0.027-0.169-0.027-0.232v0c0-0.073 0.009-0.173 0.027-0.301v0c0.255-0.046 0.475-0.126 0.661-0.24 0.188-0.113 0.345-0.272 0.473-0.478 0.128-0.204 0.226-0.386 0.295-0.547 0.067-0.159 0.151-0.388 0.252-0.689v0c0.082-0.027 0.182-0.041 0.3-0.041v0c0.109 0 0.205 0.014 0.287 0.041zM135.872 190.75v0 5.356c0 0.61 0.014 1.038 0.041 1.284v0l1.079 0.137c0.027 0.146 0.027 0.319 0 0.519v0c-0.665 0.027-1.357 0.091-2.077 0.192v0c-0.064-0.064-0.109-0.15-0.136-0.26v0l-0.069-1.216c-0.383 0.492-0.776 0.874-1.18 1.148-0.406 0.273-0.883 0.41-1.43 0.41v0c-0.556 0-1.022-0.141-1.399-0.424-0.379-0.282-0.568-0.765-0.568-1.448v0-3.034c0-1.038-0.014-1.703-0.041-1.994v0l-1.079-0.137c-0.036-0.137-0.036-0.31 0-0.519v0c0.629-0.046 1.412-0.141 2.35-0.287v0c0.082 0.091 0.128 0.182 0.136 0.273v0c-0.046 0.237-0.068 1.908-0.068 5.015v0c0 0.638 0.076 1.09 0.227 1.358 0.149 0.27 0.429 0.404 0.839 0.404v0c0.765 0 1.457-0.455 2.077-1.366v0-2.76c0-1.029-0.014-1.69-0.041-1.981v0l-1.08-0.137c-0.036-0.137-0.036-0.31 0-0.519v0c0.547-0.036 1.307-0.132 2.282-0.287v0c0.082 0.091 0.128 0.182 0.137 0.273zM140.135 190.75v0l-0.028 1.407c0.228-0.419 0.545-0.804 0.951-1.156 0.404-0.35 0.789-0.525 1.153-0.524v0c0.282 0 0.533 0.032 0.752 0.095v0c0.073 0.118 0.109 0.273 0.109 0.465v0c0 0.301-0.064 0.601-0.191 0.902v0c-0.328-0.091-0.642-0.137-0.943-0.137v0c-0.747 0-1.362 0.364-1.844 1.093v0l-0.028 2.391v2.064l1.517 0.204c0.036 0.146 0.036 0.328 0 0.547v0c-0.574-0.027-1.23-0.041-1.968-0.041v0c-0.556 0-1.216 0.009-1.981 0.027v0c-0.055-0.173-0.055-0.351 0-0.533v0l1.08-0.15c0.036-0.501 0.055-1.079 0.054-1.735v0-3.744c0-0.182-0.014-0.351-0.041-0.505v0l-1.079-0.137c-0.036-0.137-0.036-0.31 0-0.519v0c0.629-0.046 1.412-0.141 2.35-0.287v0c0.082 0.091 0.128 0.182 0.137 0.273zM153.716 189.384v6.722c0 0.61 0.014 1.038 0.041 1.285v0l1.079 0.136c0.027 0.146 0.027 0.319 0 0.519v0c-0.665 0.027-1.357 0.091-2.076 0.192v0c-0.064-0.064-0.109-0.15-0.137-0.26v0l-0.068-0.874c-0.319 0.373-0.715 0.671-1.189 0.893-0.474 0.224-0.97 0.336-1.489 0.336v0c-0.792 0-1.448-0.331-1.968-0.992-0.519-0.659-0.779-1.54-0.779-2.642v0c0-1.275 0.34-2.298 1.02-3.069 0.678-0.769 1.49-1.153 2.437-1.153v0c0.747 0 1.357 0.178 1.831 0.533v0-1.831c0-0.601-0.014-1.048-0.041-1.339v0l-1.079-0.137c-0.036-0.137-0.036-0.31 0-0.519v0c0.629-0.046 1.412-0.141 2.35-0.287v0c0.082 0.091 0.128 0.182 0.136 0.273v0c-0.046 0.237-0.068 0.975-0.068 2.214zM150.478 191.215v0c-0.592 0-1.066 0.312-1.421 0.934-0.355 0.625-0.533 1.488-0.533 2.591v0c0 0.902 0.167 1.59 0.5 2.063 0.332 0.474 0.771 0.711 1.317 0.71v0c0.328 0 0.688-0.103 1.08-0.308 0.392-0.204 0.724-0.488 0.997-0.853v0-4.372c-0.446-0.51-1.093-0.765-1.94-0.765zM161.368 194.193v0h-4.291c-0.082 2.323 0.615 3.484 2.091 3.484v0c0.629 0 1.271-0.278 1.926-0.833v0c0.137 0.082 0.241 0.223 0.314 0.424v0c-0.629 0.701-1.426 1.052-2.391 1.052v0c-2.223 0-3.334-1.307-3.333-3.922v0c0-1.239 0.328-2.203 0.983-2.891 0.656-0.687 1.421-1.03 2.296-1.03v0c0.956 0 1.644 0.332 2.063 0.997 0.419 0.665 0.629 1.53 0.628 2.596v0c-0.091 0.073-0.187 0.114-0.286 0.123zM158.935 191.023v0c-0.474 0-0.876 0.246-1.207 0.738-0.333 0.492-0.537 1.12-0.61 1.886v0h1.694c0.674 0 1.157-0.041 1.449-0.123v0c0-0.747-0.114-1.351-0.342-1.812-0.228-0.459-0.556-0.689-0.984-0.689zM168.295 189.384v0 7.966l1.107 0.204c0.036 0.146 0.036 0.328 0 0.547v0c-0.574-0.027-1.161-0.041-1.763-0.041v0c-0.419 0-1.011 0.009-1.776 0.027v0c-0.055-0.173-0.055-0.351 0-0.533v0l1.079-0.15c0.036-0.501 0.055-1.079 0.055-1.735v0-7.829l-1.121-0.137c-0.036-0.137-0.036-0.31 0-0.519v0c0.629-0.046 1.412-0.141 2.351-0.287v0c0.082 0.091 0.128 0.182 0.136 0.273v0c-0.046 0.237-0.068 0.975-0.068 2.214zM171.765 187.116v0l-0.259 3.361c-0.21 0.064-0.419 0.064-0.629 0v0l-0.232-3.361c0-0.21 0.036-0.355 0.109-0.438 0.073-0.082 0.223-0.123 0.451-0.123v0c0.237 0 0.39 0.036 0.459 0.11 0.067 0.073 0.101 0.223 0.101 0.451zM174.553 196.229v0c0 0.474 0.087 0.808 0.259 1.003 0.173 0.197 0.446 0.295 0.82 0.295v0c0.273 0 0.577-0.085 0.91-0.254 0.332-0.168 0.639-0.411 0.921-0.73v0-2.131c-0.938 0.055-1.658 0.22-2.159 0.497-0.501 0.279-0.751 0.719-0.751 1.32zM177.463 193.92v0-0.697c0-0.774-0.088-1.337-0.265-1.689-0.179-0.35-0.473-0.525-0.883-0.524v0c-0.419 0-0.756 0.134-1.011 0.401-0.255 0.27-0.428 0.728-0.519 1.375v0c-0.291 0.064-0.506 0.096-0.642 0.096v0c-0.355 0-0.565-0.128-0.629-0.383v0c0-0.619 0.269-1.111 0.806-1.476 0.537-0.364 1.207-0.547 2.009-0.546v0c0.884 0 1.51 0.179 1.88 0.538 0.368 0.361 0.552 1.006 0.552 1.935v0 3.853c0 0.228 0.014 0.424 0.041 0.587v0l1.079 0.137c0.036 0.137 0.036 0.31 0 0.519v0c-0.647 0.027-1.334 0.091-2.063 0.192v0c-0.073-0.073-0.118-0.164-0.136-0.274v0l-0.069-0.942c-0.756 0.865-1.599 1.298-2.527 1.298v0c-0.574 0-1.022-0.164-1.345-0.492-0.324-0.328-0.486-0.77-0.486-1.326v0c0-0.838 0.381-1.471 1.142-1.899 0.76-0.428 1.782-0.656 3.066-0.683zM182.915 190.75v0l-0.028 1.407c0.228-0.419 0.545-0.804 0.951-1.156 0.404-0.35 0.789-0.525 1.154-0.524v0c0.282 0 0.533 0.032 0.751 0.095v0c0.073 0.118 0.109 0.273 0.109 0.465v0c0 0.301-0.064 0.601-0.191 0.902v0c-0.328-0.091-0.642-0.137-0.943-0.137v0c-0.747 0-1.362 0.364-1.844 1.093v0l-0.028 2.391v2.064l1.517 0.204c0.036 0.146 0.036 0.328 0 0.547v0c-0.574-0.027-1.23-0.041-1.968-0.041v0c-0.556 0-1.216 0.009-1.981 0.027v0c-0.055-0.173-0.055-0.351 0-0.533v0l1.08-0.15c0.036-0.501 0.055-1.079 0.054-1.735v0-3.744c0-0.182-0.014-0.351-0.041-0.505v0l-1.079-0.137c-0.036-0.137-0.036-0.31 0-0.519v0c0.629-0.046 1.412-0.141 2.35-0.287v0c0.082 0.091 0.128 0.182 0.137 0.273zM192.424 192.499v0c-0.191 0.2-0.642 0.296-1.352 0.287v0c-0.146-1.148-0.56-1.722-1.244-1.722v0c-0.537 0-0.993 0.31-1.366 0.929-0.373 0.619-0.56 1.435-0.56 2.446v0c0 1.038 0.164 1.838 0.492 2.399 0.328 0.559 0.82 0.839 1.475 0.839v0c0.692 0 1.371-0.282 2.036-0.847v0c0.137 0.082 0.241 0.223 0.314 0.424v0c-0.665 0.711-1.498 1.066-2.5 1.066v0c-0.956 0-1.74-0.331-2.35-0.992-0.61-0.659-0.915-1.631-0.915-2.916v0c0-1.23 0.34-2.193 1.019-2.891 0.678-0.696 1.454-1.044 2.328-1.044v0c0.692 0 1.303 0.173 1.831 0.519 0.528 0.346 0.792 0.847 0.792 1.503zM194.283 195.669v-6.49c0-0.601-0.014-1.048-0.041-1.339v0l-1.08-0.137c-0.036-0.137-0.036-0.31 0-0.519v0c0.61-0.046 1.389-0.141 2.337-0.287v0c0.082 0.091 0.128 0.182 0.136 0.273v0c-0.046 0.237-0.068 0.975-0.068 2.214v0 2.582c0.674-0.929 1.485-1.394 2.432-1.394v0c0.565 0 1.048 0.141 1.448 0.424 0.401 0.282 0.601 0.765 0.602 1.448v0 4.906l1.106 0.204c0.036 0.146 0.036 0.328 0 0.547v0c-0.574-0.027-1.157-0.041-1.749-0.041v0c-0.419 0-1.011 0.009-1.776 0.027v0c-0.055-0.173-0.055-0.351 0-0.533v0l1.08-0.15c0.036-0.501 0.055-1.079 0.054-1.735v0-2.541c0-0.638-0.079-1.098-0.237-1.38-0.16-0.282-0.45-0.424-0.869-0.424v0c-0.346 0-0.708 0.128-1.085 0.383-0.379 0.255-0.714 0.624-1.006 1.106v0 4.537l1.107 0.204c0.036 0.146 0.036 0.328 0 0.547v0c-0.574-0.027-1.157-0.041-1.749-0.041v0c-0.419 0-1.011 0.009-1.776 0.027v0c-0.055-0.173-0.055-0.351 0-0.533v0l1.079-0.15c0.036-0.501 0.055-1.079 0.055-1.735zM204.216 192.964v0 4.386l1.107 0.204c0.009 0.046 0.016 0.087 0.022 0.123 0.004 0.036 0.005 0.077 0.005 0.123v0c0 0.046-0.002 0.093-0.005 0.142-0.005 0.051-0.013 0.104-0.022 0.159v0c-0.574-0.027-1.161-0.041-1.763-0.041v0c-0.21 0-0.462 0.003-0.757 0.008-0.297 0.004-0.637 0.01-1.019 0.019v0c-0.027-0.082-0.041-0.169-0.041-0.259v0c0-0.082 0.014-0.173 0.041-0.274v0l1.079-0.15c0.018-0.255 0.032-0.526 0.041-0.814 0.009-0.286 0.014-0.593 0.014-0.921v0-2.91c0-0.601-0.014-1.048-0.041-1.339v0l-1.079-0.137c-0.018-0.046-0.027-0.123-0.028-0.232v0c0-0.046 0-0.091 0-0.137 0-0.046 0.009-0.096 0.028-0.15v0c0.619-0.036 1.403-0.132 2.35-0.287v0c0.082 0.091 0.128 0.182 0.136 0.273v0c-0.046 0.255-0.068 0.993-0.068 2.214zM202.221 188.086v0c-0.018-0.046-0.027-0.094-0.027-0.145 0-0.049 0-0.097 0-0.142v0c0-0.246 0.103-0.445 0.309-0.596 0.204-0.149 0.456-0.224 0.757-0.224v0c0.282 0 0.513 0.084 0.691 0.251 0.177 0.169 0.265 0.4 0.265 0.692v0c0 0.237-0.102 0.428-0.306 0.574-0.206 0.146-0.468 0.219-0.787 0.218v0c-0.219 0-0.412-0.055-0.579-0.164-0.169-0.109-0.277-0.264-0.323-0.464zM208.206 189.11v0 1.954h1.926c0.018 0.109 0.027 0.191 0.028 0.246v0c0 0.082-0.009 0.178-0.028 0.287v0l-1.926 0.287v3.758c0 0.674 0.062 1.15 0.186 1.426 0.122 0.279 0.315 0.418 0.579 0.418v0c0.237 0 0.606-0.096 1.107-0.287v0c0.091 0.082 0.155 0.237 0.191 0.465v0c-0.273 0.164-0.48 0.284-0.62 0.36-0.142 0.078-0.32 0.148-0.533 0.208-0.215 0.058-0.441 0.087-0.678 0.088v0c-0.455 0-0.826-0.176-1.112-0.528-0.288-0.35-0.432-0.884-0.432-1.604v0-4.468l-0.956-0.123c-0.018-0.091-0.027-0.169-0.028-0.232v0c0-0.073 0.009-0.173 0.028-0.301v0c0.255-0.046 0.476-0.126 0.664-0.24 0.186-0.113 0.343-0.272 0.47-0.478 0.128-0.204 0.226-0.386 0.295-0.547 0.067-0.159 0.151-0.388 0.251-0.689v0c0.082-0.027 0.182-0.041 0.301-0.041v0c0.109 0 0.205 0.014 0.287 0.041zM216.773 194.193v0h-4.291c-0.082 2.323 0.615 3.484 2.091 3.484v0c0.629 0 1.271-0.278 1.926-0.833v0c0.137 0.082 0.241 0.223 0.315 0.424v0c-0.629 0.701-1.426 1.052-2.391 1.052v0c-2.223 0-3.334-1.307-3.334-3.922v0c0-1.239 0.328-2.203 0.983-2.891 0.656-0.687 1.421-1.03 2.296-1.03v0c0.956 0 1.644 0.332 2.063 0.997 0.419 0.665 0.629 1.53 0.629 2.596v0c-0.091 0.073-0.187 0.114-0.287 0.123zM214.341 191.023v0c-0.474 0-0.876 0.246-1.208 0.738-0.333 0.492-0.537 1.12-0.61 1.886v0h1.695c0.674 0 1.157-0.041 1.448-0.123v0c0-0.747-0.114-1.351-0.342-1.812-0.228-0.459-0.556-0.689-0.983-0.689zM224.178 192.499v0c-0.191 0.2-0.642 0.296-1.352 0.287v0c-0.146-1.148-0.56-1.722-1.244-1.722v0c-0.537 0-0.993 0.31-1.366 0.929-0.373 0.619-0.56 1.435-0.56 2.446v0c0 1.038 0.164 1.838 0.492 2.399 0.328 0.559 0.82 0.839 1.475 0.839v0c0.692 0 1.371-0.282 2.036-0.847v0c0.137 0.082 0.241 0.223 0.314 0.424v0c-0.665 0.711-1.498 1.066-2.5 1.066v0c-0.956 0-1.74-0.331-2.35-0.992-0.61-0.659-0.915-1.631-0.916-2.916v0c0-1.23 0.34-2.193 1.02-2.891 0.678-0.696 1.454-1.044 2.328-1.044v0c0.692 0 1.303 0.173 1.831 0.519 0.528 0.346 0.792 0.847 0.792 1.503zM227.239 189.11v0 1.954h1.926c0.018 0.109 0.027 0.191 0.028 0.246v0c0 0.082-0.009 0.178-0.028 0.287v0l-1.926 0.287v3.758c0 0.674 0.062 1.15 0.186 1.426 0.122 0.279 0.315 0.418 0.579 0.418v0c0.237 0 0.606-0.096 1.107-0.287v0c0.091 0.082 0.155 0.237 0.191 0.465v0c-0.273 0.164-0.48 0.284-0.62 0.36-0.142 0.078-0.32 0.148-0.533 0.208-0.215 0.058-0.441 0.087-0.678 0.088v0c-0.455 0-0.826-0.176-1.112-0.528-0.288-0.35-0.432-0.884-0.432-1.604v0-4.468l-0.956-0.123c-0.018-0.091-0.027-0.169-0.028-0.232v0c0-0.073 0.009-0.173 0.028-0.301v0c0.255-0.046 0.476-0.126 0.664-0.24 0.186-0.113 0.343-0.272 0.47-0.478 0.128-0.204 0.226-0.386 0.295-0.547 0.067-0.159 0.151-0.388 0.251-0.689v0c0.082-0.027 0.182-0.041 0.301-0.041v0c0.109 0 0.205 0.014 0.287 0.041zM236.557 190.75v0 5.356c0 0.61 0.014 1.038 0.041 1.284v0l1.08 0.137c0.027 0.146 0.027 0.319 0 0.519v0c-0.665 0.027-1.357 0.091-2.077 0.192v0c-0.064-0.064-0.109-0.15-0.137-0.26v0l-0.068-1.216c-0.383 0.492-0.776 0.874-1.181 1.148-0.406 0.273-0.883 0.41-1.429 0.41v0c-0.556 0-1.022-0.141-1.399-0.424-0.379-0.282-0.568-0.765-0.568-1.448v0-3.034c0-1.038-0.014-1.703-0.041-1.994v0l-1.08-0.137c-0.036-0.137-0.036-0.31 0-0.519v0c0.629-0.046 1.412-0.141 2.35-0.287v0c0.082 0.091 0.128 0.182 0.137 0.273v0c-0.046 0.237-0.068 1.908-0.068 5.015v0c0 0.638 0.076 1.09 0.226 1.358 0.149 0.27 0.429 0.404 0.839 0.404v0c0.765 0 1.457-0.455 2.077-1.366v0-2.76c0-1.029-0.014-1.69-0.041-1.981v0l-1.079-0.137c-0.036-0.137-0.036-0.31 0-0.519v0c0.547-0.036 1.307-0.132 2.282-0.287v0c0.082 0.091 0.128 0.182 0.136 0.273zM240.82 190.75v0l-0.027 1.407c0.228-0.419 0.545-0.804 0.951-1.156 0.404-0.35 0.789-0.525 1.153-0.524v0c0.282 0 0.533 0.032 0.752 0.095v0c0.073 0.118 0.109 0.273 0.109 0.465v0c0 0.301-0.064 0.601-0.191 0.902v0c-0.328-0.091-0.642-0.137-0.943-0.137v0c-0.747 0-1.362 0.364-1.845 1.093v0l-0.027 2.391v2.064l1.517 0.204c0.036 0.146 0.036 0.328 0 0.547v0c-0.574-0.027-1.23-0.041-1.968-0.041v0c-0.556 0-1.216 0.009-1.981 0.027v0c-0.055-0.173-0.055-0.351 0-0.533v0l1.079-0.15c0.036-0.501 0.055-1.079 0.055-1.735v0-3.744c0-0.182-0.014-0.351-0.041-0.505v0l-1.08-0.137c-0.036-0.137-0.036-0.31 0-0.519v0c0.629-0.046 1.412-0.141 2.351-0.287v0c0.082 0.091 0.128 0.182 0.136 0.273zM250.098 194.193v0h-4.291c-0.082 2.323 0.615 3.484 2.091 3.484v0c0.629 0 1.271-0.278 1.926-0.833v0c0.137 0.082 0.241 0.223 0.315 0.424v0c-0.629 0.701-1.426 1.052-2.391 1.052v0c-2.223 0-3.334-1.307-3.334-3.922v0c0-1.239 0.328-2.203 0.983-2.891 0.656-0.687 1.421-1.03 2.296-1.03v0c0.956 0 1.644 0.332 2.063 0.997 0.419 0.665 0.629 1.53 0.629 2.596v0c-0.091 0.073-0.187 0.114-0.287 0.123zM247.666 191.023v0c-0.474 0-0.876 0.246-1.208 0.738-0.333 0.492-0.537 1.12-0.61 1.886v0h1.695c0.674 0 1.157-0.041 1.448-0.123v0c0-0.747-0.114-1.351-0.342-1.812-0.228-0.459-0.556-0.689-0.983-0.689zM260.632 194.193v0h-4.29c-0.082 2.323 0.615 3.484 2.09 3.484v0c0.629 0 1.271-0.278 1.927-0.833v0c0.137 0.082 0.241 0.223 0.314 0.424v0c-0.629 0.701-1.426 1.052-2.391 1.052v0c-2.223 0-3.334-1.307-3.334-3.922v0c0-1.239 0.328-2.203 0.984-2.891 0.656-0.687 1.421-1.03 2.295-1.03v0c0.956 0 1.644 0.332 2.064 0.997 0.419 0.665 0.629 1.53 0.628 2.596v0c-0.091 0.073-0.187 0.114-0.287 0.123zM258.2 191.023v0c-0.474 0-0.876 0.246-1.208 0.738-0.333 0.492-0.537 1.12-0.609 1.886v0h1.694c0.674 0 1.157-0.041 1.448-0.123v0c0-0.747-0.114-1.351-0.341-1.812-0.228-0.459-0.556-0.689-0.984-0.689zM267.601 195.669v-2.5c0-0.701-0.093-1.193-0.279-1.476-0.188-0.282-0.5-0.424-0.938-0.424v0c-0.674 0-1.353 0.506-2.035 1.517v0 4.564l1.106 0.204c0.036 0.146 0.036 0.328 0 0.547v0c-0.574-0.027-1.161-0.041-1.762-0.041v0c-0.419 0-1.011 0.009-1.776 0.027v0c-0.055-0.173-0.055-0.351 0-0.533v0l1.079-0.15c0.036-0.501 0.055-1.079 0.055-1.735v0-3.744c0-0.182-0.014-0.351-0.041-0.505v0l-1.08-0.137c-0.036-0.137-0.036-0.31 0-0.519v0c0.629-0.046 1.412-0.141 2.35-0.287v0c0.082 0.091 0.128 0.182 0.137 0.273v0c-0.046 0.237-0.068 0.642-0.068 1.216v0c0.72-0.993 1.53-1.489 2.432-1.489v0c1.412 0 2.118 0.67 2.118 2.008v0 4.865l1.106 0.204c0.036 0.146 0.036 0.328 0 0.547v0c-0.574-0.027-1.161-0.041-1.762-0.041v0c-0.419 0-1.011 0.009-1.777 0.027v0c-0.055-0.173-0.055-0.351 0-0.533v0l1.08-0.15c0.036-0.501 0.055-1.079 0.055-1.735zM276.263 189.384v0 7.966l1.107 0.204c0.036 0.146 0.036 0.328 0 0.547v0c-0.574-0.027-1.161-0.041-1.763-0.041v0c-0.419 0-1.011 0.009-1.776 0.027v0c-0.055-0.173-0.055-0.351 0-0.533v0l1.079-0.15c0.036-0.501 0.055-1.079 0.055-1.735v0-7.829l-1.12-0.137c-0.036-0.137-0.036-0.31 0-0.519v0c0.629-0.046 1.412-0.141 2.35-0.287v0c0.082 0.091 0.128 0.182 0.136 0.273v0c-0.046 0.237-0.068 0.975-0.068 2.214zM280.499 192.964v0 4.386l1.107 0.204c0.009 0.046 0.016 0.087 0.021 0.123 0.004 0.036 0.005 0.077 0.006 0.123v0c0 0.046-0.002 0.093-0.006 0.142-0.005 0.051-0.013 0.104-0.021 0.159v0c-0.574-0.027-1.161-0.041-1.763-0.041v0c-0.21 0-0.462 0.003-0.757 0.008-0.297 0.004-0.637 0.01-1.019 0.019v0c-0.027-0.082-0.041-0.169-0.041-0.259v0c0-0.082 0.014-0.173 0.041-0.274v0l1.079-0.15c0.018-0.255 0.032-0.526 0.041-0.814 0.009-0.286 0.014-0.593 0.014-0.921v0-2.91c0-0.601-0.014-1.048-0.041-1.339v0l-1.08-0.137c-0.018-0.046-0.027-0.123-0.027-0.232v0c0-0.046 0-0.091 0-0.137 0-0.046 0.009-0.096 0.027-0.15v0c0.619-0.036 1.403-0.132 2.35-0.287v0c0.082 0.091 0.128 0.182 0.137 0.273v0c-0.046 0.255-0.068 0.993-0.068 2.214zM278.504 188.086v0c-0.018-0.046-0.027-0.094-0.027-0.145 0-0.049 0-0.097 0-0.142v0c0-0.246 0.103-0.445 0.308-0.596 0.204-0.149 0.456-0.224 0.757-0.224v0c0.282 0 0.513 0.084 0.692 0.251 0.177 0.169 0.265 0.4 0.265 0.692v0c0 0.237-0.102 0.428-0.306 0.574-0.206 0.146-0.468 0.219-0.787 0.218v0c-0.219 0-0.412-0.055-0.58-0.164-0.169-0.109-0.277-0.264-0.322-0.464zM283.532 198.197v0c0.082 0.036 0.15 0.114 0.205 0.232v0c-0.301 0.246-0.451 0.615-0.451 1.107v0c0 0.437 0.2 0.788 0.601 1.052 0.401 0.264 0.92 0.396 1.558 0.396v0c0.656 0 1.202-0.12 1.64-0.361 0.437-0.242 0.656-0.582 0.655-1.019v0c0-0.474-0.087-0.822-0.259-1.044-0.173-0.224-0.519-0.359-1.039-0.404v0l-2.555-0.233c-0.282-0.036-0.516-0.185-0.702-0.445-0.188-0.259-0.281-0.511-0.281-0.757v0l0.915-1.517c-0.419-0.237-0.735-0.551-0.948-0.942-0.215-0.392-0.322-0.792-0.323-1.203v0c0-0.774 0.287-1.398 0.861-1.872 0.574-0.474 1.234-0.711 1.981-0.71v0c0.72 0 1.353 0.191 1.899 0.574v0c0.046-1.248 0.51-1.895 1.394-1.941v0c0.237 0.055 0.355 0.251 0.355 0.588v0c0 0.182-0.018 0.383-0.054 0.601v0c-0.355 0.027-0.647 0.143-0.875 0.347-0.228 0.206-0.392 0.441-0.492 0.705v0c0.455 0.455 0.683 1.025 0.684 1.708v0c0 0.72-0.291 1.318-0.875 1.796-0.583 0.479-1.262 0.719-2.036 0.718v0c-0.41 0-0.779-0.055-1.106-0.164v0l-0.465 1.216 3.402 0.342c0.528 0.064 0.932 0.257 1.211 0.579 0.277 0.324 0.415 0.746 0.415 1.265v0c0 0.911-0.328 1.61-0.984 2.099-0.656 0.486-1.544 0.73-2.664 0.73v0c-0.929 0-1.653-0.169-2.173-0.506-0.519-0.337-0.779-0.788-0.778-1.352v0c0-0.383 0.123-0.721 0.369-1.017 0.246-0.297 0.551-0.486 0.915-0.568zM283.778 193.059v0c0 0.528 0.148 0.979 0.445 1.353 0.295 0.373 0.689 0.56 1.181 0.56v0c0.483 0 0.879-0.185 1.189-0.555 0.31-0.368 0.465-0.821 0.464-1.358v0c0-0.583-0.152-1.068-0.456-1.456-0.306-0.386-0.705-0.579-1.197-0.58v0c-0.465 0-0.852 0.196-1.161 0.588-0.31 0.392-0.465 0.874-0.465 1.448zM295.146 195.669v-2.5c0-0.701-0.093-1.193-0.279-1.476-0.188-0.282-0.5-0.424-0.937-0.424v0c-0.674 0-1.353 0.506-2.036 1.517v0 4.564l1.107 0.204c0.036 0.146 0.036 0.328 0 0.547v0c-0.574-0.027-1.161-0.041-1.763-0.041v0c-0.419 0-1.011 0.009-1.776 0.027v0c-0.055-0.173-0.055-0.351 0-0.533v0l1.079-0.15c0.036-0.501 0.055-1.079 0.055-1.735v0-3.744c0-0.182-0.014-0.351-0.041-0.505v0l-1.079-0.137c-0.036-0.137-0.036-0.31 0-0.519v0c0.629-0.046 1.412-0.141 2.35-0.287v0c0.082 0.091 0.128 0.182 0.136 0.273v0c-0.046 0.237-0.068 0.642-0.068 1.216v0c0.72-0.993 1.53-1.489 2.432-1.489v0c1.412 0 2.118 0.67 2.118 2.008v0 4.865l1.107 0.204c0.036 0.146 0.036 0.328 0 0.547v0c-0.574-0.027-1.161-0.041-1.763-0.041v0c-0.419 0-1.011 0.009-1.776 0.027v0c-0.055-0.173-0.055-0.351 0-0.533v0l1.079-0.15c0.036-0.501 0.055-1.079 0.055-1.735zM304.055 194.193v0h-4.291c-0.082 2.323 0.615 3.484 2.091 3.484v0c0.629 0 1.271-0.278 1.926-0.833v0c0.137 0.082 0.241 0.223 0.314 0.424v0c-0.629 0.701-1.426 1.052-2.391 1.052v0c-2.223 0-3.334-1.307-3.333-3.922v0c0-1.239 0.328-2.203 0.983-2.891 0.656-0.687 1.421-1.03 2.296-1.03v0c0.956 0 1.644 0.332 2.063 0.997 0.419 0.665 0.629 1.53 0.628 2.596v0c-0.091 0.073-0.187 0.114-0.286 0.123zM301.622 191.023v0c-0.474 0-0.876 0.246-1.207 0.738-0.333 0.492-0.537 1.12-0.61 1.886v0h1.694c0.674 0 1.157-0.041 1.449-0.123v0c0-0.747-0.114-1.351-0.342-1.812-0.228-0.459-0.556-0.689-0.984-0.689z" fill="#ffffff" fill-rule="nonzero" stroke="none" stroke-width="1" stroke-linecap="butt" stroke-linejoin="miter" stroke-miterlimit="10" stroke-dasharray="" stroke-dashoffset="0" font-family="none" font-weight="none" font-size="none" text-anchor="none" style="mix-blend-mode: normal" data-fill-palette-color="secondary" id="text-1"></path></g></g><g transform="matrix(1,0,0,1,29.33176499999999,49.55479145739908)"><svg viewBox="0 0 316.416 52.02654708520179" height="52.02654708520179" width="316.416"><g><svg viewBox="0 0 316.416 52.02654708520179" height="52.02654708520179" width="316.416"><g><svg viewBox="0 0 316.416 52.02654708520179" height="52.02654708520179" width="316.416"><g><svg viewBox="0 0 316.416 52.02654708520179" height="52.02654708520179" width="316.416"><g id="textblocktransform"><svg viewBox="0 0 316.416 52.02654708520179" height="52.02654708520179" width="316.416" id="textblock"><g><svg viewBox="0 0 316.416 52.02654708520179" height="52.02654708520179" width="316.416"><g transform="matrix(1,0,0,1,0,0)"><svg width="316.416" viewBox="0 -31.74 195.98 32.23" height="52.02654708520179" data-palette-color="#89939e"><path d="M19.38 0L29.93 0Q29.93-1.07 29.15-1.22L29.15-1.22Q28.91-1.27 28.66-1.27L28.66-1.27 27-1.27 15.82-29.3 14.01-29.3 3.08-1.27 0-1.27 0 0 8.69 0Q8.69-1.07 7.91-1.22L7.91-1.22Q7.67-1.27 7.42-1.27L7.42-1.27 5.03-1.27 8.69-10.74 18.9-10.74 22.56-1.27 19.38-1.27 19.38 0ZM13.77-23.97L18.36-12.16 9.23-12.16 13.77-23.97ZM42.33-1.22L42.33-1.22 38.82-1.22 38.82-10.94Q38.82-15.38 41.55-18.07L41.55-18.07Q42.62-19.09 43.36-19.14L43.36-19.14Q44.19-19.14 44.87-17.92L44.87-17.92Q45.65-16.55 46.34-16.36L46.34-16.36Q46.63-16.26 46.92-16.26L46.92-16.26Q48.39-16.26 48.78-17.68L48.78-17.68Q48.87-17.97 48.87-18.26L48.87-18.26Q48.87-20.46 46.63-20.95L46.63-20.95Q46.14-21.04 45.7-21.04L45.7-21.04Q42.77-21.04 40.48-18.55L40.48-18.55Q39.4-17.38 38.77-15.92L38.77-15.92 38.57-20.75 31.49-20.75 31.49-19.53 35.15-19.53 35.15-4.15Q35.15-1.9 33.88-1.46L33.88-1.46Q33.15-1.22 31.49-1.22L31.49-1.22 31.49 0 43.55 0Q43.55-1.07 42.82-1.17L42.82-1.17Q42.62-1.22 42.33-1.22ZM51.07-10.16L51.07-10.16Q51.07-4.25 55.41-1.32L55.41-1.32Q58.1 0.49 61.52 0.49L61.52 0.49Q66.6 0.49 69.18-3.08L69.18-3.08Q69.77-3.91 70.11-4.74L70.11-4.74 68.84-5.18Q67.04-1.32 62.89-0.93L62.89-0.93Q62.5-0.88 62.1-0.88L62.1-0.88Q58.64-0.88 56.68-4.35L56.68-4.35Q55.22-6.98 55.22-10.6L55.22-10.6Q55.22-16.99 58.59-19.14L58.59-19.14Q60-20.02 61.71-20.02L61.71-20.02Q64.35-20.02 64.89-17.97L64.89-17.97Q64.99-17.58 65.13-16.75L65.13-16.75Q65.42-14.79 66.21-14.31L66.21-14.31Q66.69-14.06 67.28-14.01L67.28-14.01Q68.94-13.92 69.38-15.38L69.38-15.38Q69.48-15.72 69.48-16.02L69.48-16.02Q69.48-18.51 66.3-20.12L66.3-20.12Q64.06-21.24 61.42-21.24L61.42-21.24Q54.88-21.24 52.29-15.92L52.29-15.92Q51.07-13.38 51.07-10.16ZM81.68-1.22L81.68-1.22 79.24-1.22 79.24-11.77Q79.24-16.21 82.32-18.21L82.32-18.21Q83.59-19.04 84.95-19.04L84.95-19.04Q87.93-19.04 89.1-16.26L89.1-16.26Q89.64-14.94 89.64-13.33L89.64-13.33 89.64-4.15Q89.64-1.9 88.57-1.46L88.57-1.46Q87.88-1.22 86.22-1.22L86.22-1.22 86.22 0 96.97 0Q96.97-1.07 96.23-1.17L96.23-1.17Q96.04-1.22 95.74-1.22L95.74-1.22 93.3-1.22 93.3-13.33Q93.3-18.65 89.79-20.56L89.79-20.56Q88.42-21.24 86.86-21.24L86.86-21.24Q83.24-21.24 80.8-18.6L80.8-18.6Q79.78-17.48 79.24-16.06L79.24-16.06 79.24-31.74 71.92-31.74 71.92-30.52 75.58-30.52 75.58-4.15Q75.58-1.9 74.31-1.46L74.31-1.46Q73.58-1.22 71.92-1.22L71.92-1.22 71.92 0 82.9 0Q82.9-1.07 82.17-1.17L82.17-1.17Q81.97-1.22 81.68-1.22ZM100.19 0L114.15 0 114.15-1.27 108.29-1.27 108.29-14.4 118.35-14.4 118.35-15.82 108.29-15.82 108.29-28.03 116.1-28.03Q119.62-28.03 121.13-23.29L121.13-23.29Q121.23-23 121.28-22.8L121.28-22.8 121.96-20.51 122.94-20.51 122.7-29.3 100.19-29.3 100.19-28.03 104.09-28.03 104.09-1.27 100.19-1.27 100.19 0ZM135-1.22L135-1.22 132.36-1.22 132.36-31.74 125.04-31.74 125.04-30.52 128.7-30.52 128.7-4.15Q128.7-1.9 127.43-1.46L127.43-1.46Q126.7-1.22 125.04-1.22L125.04-1.22 125.04 0 136.22 0Q136.22-1.07 135.49-1.17L135.49-1.17Q135.29-1.22 135-1.22ZM143.64-10.4L143.64-10.4Q143.64-17.97 147.79-19.63L147.79-19.63Q148.86-20.02 150.03-20.02L150.03-20.02Q155.45-20.02 156.33-13.18L156.33-13.18Q156.48-12.01 156.48-10.6L156.48-10.6Q156.48-2.39 151.99-0.98L151.99-0.98Q151.11-0.73 150.18-0.73L150.18-0.73Q145.25-0.73 143.98-6.59L143.98-6.59Q143.64-8.3 143.64-10.4ZM150.18-21.24L150.18-21.24Q145.49-21.24 142.37-18.02L142.37-18.02Q139.49-15.04 139.49-10.6L139.49-10.6Q139.49-4.44 143.98-1.37L143.98-1.37Q146.71 0.49 150.03 0.49L150.03 0.49Q154.72 0.49 157.8-2.83L157.8-2.83Q160.63-5.86 160.63-10.4L160.63-10.4Q160.63-16.55 156.09-19.53L156.09-19.53Q153.4-21.24 150.18-21.24ZM168.88-19.53L172.54-19.53 172.54-20.75 162.87-20.75 162.87-19.53 165.07-19.53 171.17-3.17Q172.2-0.39 173.27 0.05L173.27 0.05Q173.81 0.24 174.59 0.24L174.59 0.24 175.57 0.24 179.82-12.55 183.09-3.17Q184.02-0.44 184.99 0.05L184.99 0.05Q185.48 0.24 186.31 0.24L186.31 0.24 187.09 0.24 193-17.77Q193.49-19.29 194.17-19.48L194.17-19.48Q194.42-19.53 194.71-19.53L194.71-19.53Q195.78-19.53 195.93-20.21L195.93-20.21Q195.98-20.46 195.98-20.75L195.98-20.75 188.75-20.75 188.75-19.53 192.17-19.53 186.75-2.69 181.04-19.53 184.46-19.53 184.46-20.75 176.94-20.75 179.13-14.55 175.08-2.54 168.88-19.53Z" opacity="1" transform="matrix(1,0,0,1,0,0)" fill="#ffffff" class="wordmark-text-0" data-fill-palette-color="primary" id="text-0"></path></svg></g></svg></g></svg></g></svg></g><g></g></svg></g></svg></g></svg></g></svg></g><defs></defs></svg><rect width="375.07953" height="151.13612999999995" fill="none" stroke="none" visibility="hidden"></rect></g></svg></g></svg>